<svg id="visual" viewBox="0 0 900 490" width="900" height="490" xmlns="http://www.w3.org/2000/svg" xmlns:xlink="http://www.w3.org/1999/xlink" version="1.1"><rect x="0" y="0" width="900" height="490" fill="#7ab4d0"></rect><path d="M139 0L145.7 11.7C152.3 23.3 165.7 46.7 172.2 70C178.7 93.3 178.3 116.7 173.5 140C168.7 163.3 159.3 186.7 150.8 210C142.3 233.3 134.7 256.7 142 280C149.3 303.3 171.7 326.7 171.8 350C172 373.3 150 396.7 146.7 420C143.3 443.3 158.7 466.7 166.3 478.3L174 490L0 490L0 478.3C0 466.7 0 443.3 0 420C0 396.7 0 373.3 0 350C0 326.7 0 303.3 0 280C0 256.7 0 233.3 0 210C0 186.7 0 163.3 0 140C0 116.7 0 93.3 0 70C0 46.7 0 23.3 0 11.7L0 0Z" fill="#0a3679" stroke-linecap="round" stroke-linejoin="miter"></path></svg>